<?xml version="1.0" encoding="utf-8"?>
<!-- Generator: Adobe Illustrator 16.0.4, SVG Export Plug-In . SVG Version: 6.00 Build 0)  -->
<!DOCTYPE svg PUBLIC "-//W3C//DTD SVG 1.1//EN" "http://www.w3.org/Graphics/SVG/1.1/DTD/svg11.dtd">
<svg version="1.1" id="Layer_1" xmlns="http://www.w3.org/2000/svg" xmlns:xlink="http://www.w3.org/1999/xlink" x="0px" y="0px"
	 width="16px" height="16px" viewBox="0 0 16 16" enable-background="new 0 0 16 16" xml:space="preserve">
<g>
	<path d="M10.059,2.946c0.146,0.122,0.234,0.3,0.234,0.5c0,0.204-0.09,0.382-0.234,0.5c0.26-0.08,0.477-0.236,0.615-0.443
		l0.038-0.058l-0.038-0.057C10.535,3.182,10.318,3.029,10.059,2.946z"/>
	<path d="M9.199,2.946C8.944,3.029,8.723,3.182,8.588,3.389L8.55,3.445l0.038,0.058c0.135,0.207,0.356,0.363,0.611,0.443
		c-0.141-0.118-0.233-0.296-0.233-0.5C8.966,3.247,9.059,3.068,9.199,2.946z"/>
	<path d="M13.229,2.946c-0.123-1.594-1.361-2.635-2.917-2.894C10.125,0.021,9.936,0,9.74,0C9.541,0,9.35,0.018,9.157,0.052
		C8.701,0.131,8.272,0.297,7.892,0.538c-0.37,0.234-0.695,0.532-0.952,0.883C6.935,1.43,6.923,1.438,6.919,1.447
		C6.898,1.475,0,14.107,0,14.107C0.021,14.107,2.56,16,4.959,16c4.547,0,8.23-3.672,8.245-8.209c0-0.008,0-0.017,0.001-0.024V6.651
		L16,4.568L13.229,2.946z M11.26,3.549c-0.323,0.556-0.947,0.897-1.629,0.897c-0.68,0-1.303-0.341-1.628-0.897L7.942,3.446
		l0.061-0.098c0.325-0.556,0.948-0.902,1.628-0.902c0.682,0,1.306,0.347,1.629,0.902l0.058,0.098L11.26,3.549z"/>
</g>
</svg>
