<?xml version="1.0" encoding="utf-8"?>
<!-- Generator: Adobe Illustrator 15.1.0, SVG Export Plug-In . SVG Version: 6.00 Build 0)  -->
<!DOCTYPE svg PUBLIC "-//W3C//DTD SVG 1.1//EN" "http://www.w3.org/Graphics/SVG/1.1/DTD/svg11.dtd">
<svg version="1.1" id="Layer_1" xmlns="http://www.w3.org/2000/svg" xmlns:xlink="http://www.w3.org/1999/xlink" x="0px" y="0px"
	 width="181px" height="50px" viewBox="0 0 181 50" enable-background="new 0 0 181 50" xml:space="preserve">
<path fill="#BCBEC0" d="M173.75,38.5c0,1.657-1.343,3-3,3H10.5c-1.657,0-3-1.343-3-3v-1.875c0-1.657,1.343-3,3-3h160.25
	c1.657,0,3,1.343,3,3V38.5z"/>
<linearGradient id="SVGID_1_" gradientUnits="userSpaceOnUse" x1="90.6245" y1="6.875" x2="90.6245" y2="41.6427">
	<stop  offset="0" style="stop-color:#FFFFFF"/>
	<stop  offset="0" style="stop-color:#FFFFFF"/>
	<stop  offset="1" style="stop-color:#F2F2F2"/>
</linearGradient>
<path fill="url(#SVGID_1_)" stroke="#D1D3D4" stroke-miterlimit="10" d="M173.75,37.125c0,1.657-1.343,3-3,3H10.5
	c-1.657,0-3-1.343-3-3V12.25c0-1.657,1.343-3,3-3h160.25c1.657,0,3,1.343,3,3V37.125z"/>
</svg>
