<?xml version="1.0" encoding="utf-8"?>
<!-- Generator: Adobe Illustrator 16.0.4, SVG Export Plug-In . SVG Version: 6.00 Build 0)  -->
<!DOCTYPE svg PUBLIC "-//W3C//DTD SVG 1.1//EN" "http://www.w3.org/Graphics/SVG/1.1/DTD/svg11.dtd">
<svg version="1.1" id="Layer_1" xmlns="http://www.w3.org/2000/svg" xmlns:xlink="http://www.w3.org/1999/xlink" x="0px" y="0px"
	 width="10px" height="10px" viewBox="0 0 10 10" enable-background="new 0 0 10 10" xml:space="preserve">
<g>
	<path d="M8.412,1.608H3.169c-0.874,0-1.588,0.731-1.588,1.63v5.134C1.581,9.271,2.295,10,3.169,10h5.243
		C9.287,10,10,9.271,10,8.372V3.238C10,2.34,9.287,1.608,8.412,1.608z M9.09,8.372c0,0.385-0.305,0.7-0.678,0.7H3.169
		c-0.372,0-0.675-0.315-0.675-0.7V3.238c0-0.388,0.303-0.7,0.675-0.7h5.243c0.373,0,0.678,0.312,0.678,0.7V8.372z"/>
	<path d="M6.829,0H4.444H2.587H2.412c-1.304,0-2.364,1.034-2.41,2.326v0.211C0.001,2.569,0,2.6,0,2.628v4.135h0.002
		c0.01,0.532,0.412,0.962,0.908,0.962h0.001V6.745H0.91V2.628c0-0.008,0.001-0.018,0.001-0.026v-0.04
		c0-0.899,0.714-1.631,1.588-1.631h0.032c0.021-0.002,0.04-0.003,0.056-0.003h4.241v0.001H7.79V0.928
		C7.79,0.417,7.359,0.001,6.829,0z"/>
</g>
</svg>
