<?xml version="1.0" encoding="utf-8"?>
<!-- Generator: Adobe Illustrator 16.0.4, SVG Export Plug-In . SVG Version: 6.00 Build 0)  -->
<!DOCTYPE svg PUBLIC "-//W3C//DTD SVG 1.1//EN" "http://www.w3.org/Graphics/SVG/1.1/DTD/svg11.dtd">
<svg version="1.1" id="Layer_1" xmlns="http://www.w3.org/2000/svg" xmlns:xlink="http://www.w3.org/1999/xlink" x="0px" y="0px"
	 width="10px" height="10px" viewBox="0 0 10 10" enable-background="new 0 0 10 10" xml:space="preserve">
<path d="M9.826,4.703C8.863,3.057,7.014,2.032,5.001,2.032c-2.012,0-3.861,1.024-4.829,2.671L0,5l0.173,0.299
	C1.141,6.944,2.99,7.968,5.001,7.968c2.012,0,3.862-1.023,4.825-2.669L10,5L9.826,4.703z M8.451,5.189
	C7.764,6.235,6.441,6.888,5,6.888c-1.438,0-2.762-0.652-3.453-1.698l-0.124-0.19l0.124-0.188C2.239,3.764,3.562,3.112,5,3.112
	c1.441,0,2.763,0.651,3.451,1.698l0.125,0.188L8.451,5.189z"/>
<circle cx="4.999" cy="5" r="1.905"/>
</svg>
