<?xml version="1.0" encoding="utf-8"?>
<!-- Generator: Adobe Illustrator 16.0.4, SVG Export Plug-In . SVG Version: 6.00 Build 0)  -->
<!DOCTYPE svg PUBLIC "-//W3C//DTD SVG 1.1//EN" "http://www.w3.org/Graphics/SVG/1.1/DTD/svg11.dtd">
<svg version="1.1" id="Layer_1" xmlns="http://www.w3.org/2000/svg" xmlns:xlink="http://www.w3.org/1999/xlink" x="0px" y="0px"
	 width="16px" height="16px" viewBox="0 0 16 16" enable-background="new 0 0 16 16" xml:space="preserve">
<g>
	<path opacity="0.5" d="M11.189,0H0.5C0.224,0,0,0.223,0,0.5v10.69c0,0.275,0.224,0.5,0.5,0.5h2.614V9.658H2.032V2.031H9.66v1.15h2.031V0.5
			C11.691,0.223,11.467,0,11.189,0z"/>
	<path d="M15.5,4.309H4.811c-0.276,0-0.501,0.224-0.501,0.5V15.5c0,0.275,0.225,0.5,0.501,0.5H15.5c0.277,0,0.5-0.225,0.5-0.5V4.81
		C16,4.533,15.777,4.309,15.5,4.309z M13.969,13.969H6.341V6.34h7.627V13.969z"/>
	<path fill="#231F20" d="M12.654,10.416c0,0.393-0.318,0.713-0.711,0.713h-1.076v1.076c0,0.393-0.318,0.711-0.711,0.711
		c-0.395,0-0.711-0.318-0.711-0.711v-1.076H8.368c-0.393,0-0.712-0.32-0.712-0.713s0.319-0.711,0.712-0.711h1.078V8.627
		c0-0.393,0.316-0.711,0.711-0.711c0.393,0,0.711,0.318,0.711,0.711v1.078h1.076C12.336,9.705,12.654,10.023,12.654,10.416z"/>
</g>
</svg>
