<?xml version="1.0" encoding="utf-8"?>
<!-- Generator: Adobe Illustrator 16.0.4, SVG Export Plug-In . SVG Version: 6.00 Build 0)  -->
<!DOCTYPE svg PUBLIC "-//W3C//DTD SVG 1.1//EN" "http://www.w3.org/Graphics/SVG/1.1/DTD/svg11.dtd">
<svg version="1.1" id="Layer_1" xmlns="http://www.w3.org/2000/svg" xmlns:xlink="http://www.w3.org/1999/xlink" x="0px" y="0px"
	 width="16px" height="16px" viewBox="0 0 16 16" enable-background="new 0 0 16 16" xml:space="preserve">
<g>
	<path d="M13.612,1.992h-2.05V0.007h-0.969v1.984H8.562V0.007H7.594v1.984H5.562V0.007H4.594v1.984H2.616
		c-0.553,0-1.003,0.447-1.003,0.999v12.001c0,0.553,0.45,1,1.003,1h10.996c0.553,0,1.002-0.447,1.002-1V2.991
		C14.614,2.439,14.165,1.992,13.612,1.992z M12.614,14.188h-9V5.066h9V14.188z"/>
	<rect x="4.594" y="7.174" width="6.969" height="0.989"/>
	<rect x="4.594" y="9.166" width="6.969" height="0.988"/>
	<rect x="4.594" y="11.158" width="3.99" height="0.988"/>
</g>
</svg>
