<?xml version="1.0" encoding="utf-8"?>
<!-- Generator: Adobe Illustrator 16.0.4, SVG Export Plug-In . SVG Version: 6.00 Build 0)  -->
<!DOCTYPE svg PUBLIC "-//W3C//DTD SVG 1.1//EN" "http://www.w3.org/Graphics/SVG/1.1/DTD/svg11.dtd">
<svg version="1.1" id="Layer_1" xmlns="http://www.w3.org/2000/svg" xmlns:xlink="http://www.w3.org/1999/xlink" x="0px" y="0px"
	 width="10px" height="10px" viewBox="0 0 10 10" enable-background="new 0 0 10 10" xml:space="preserve">

	<path fill="#231F20" d="M9.734,2.387L8.067,0.265C7.896,0.095,7.665,0,7.424,0h-0.18v3.543H2.102V0H0.908C0.407,0,0,0.405,0,0.907
		v8.185C0,9.592,0.407,10,0.908,10h0.541L1.446,7.018c0-0.543,0.442-0.985,0.986-0.985H7.1c0.544,0,0.986,0.442,0.986,0.985V10
		h1.008C9.594,10,10,9.592,10,9.092V3.028C10,2.788,9.904,2.557,9.734,2.387z"/>
	<rect x="2.737" fill="#231F20" width="3.869" height="2.935"/>
	<path d="M7.474,9.988V7.475c0-0.454-0.364-0.822-0.813-0.822H2.893c-0.449,0-0.813,0.368-0.813,0.822v2.514H7.474z"/>
</svg>
