<?xml version="1.0" encoding="utf-8"?>
<!-- Generator: Adobe Illustrator 16.0.4, SVG Export Plug-In . SVG Version: 6.00 Build 0)  -->
<!DOCTYPE svg PUBLIC "-//W3C//DTD SVG 1.1//EN" "http://www.w3.org/Graphics/SVG/1.1/DTD/svg11.dtd">
<svg version="1.1" id="Layer_1" xmlns="http://www.w3.org/2000/svg" xmlns:xlink="http://www.w3.org/1999/xlink" x="0px" y="0px"
	 width="10px" height="10px" viewBox="0 0 10 10" enable-background="new 0 0 10 10" xml:space="preserve">
<g>
	<path d="M8.65,1.233H7.272V1.021C7.272,0.457,6.785,0,6.182,0H4.145c-0.6,0-1.089,0.456-1.089,1.021v0.212H1.678
		c-0.285,0-0.515,0.215-0.515,0.48v0.899h8V1.713C9.163,1.448,8.936,1.233,8.65,1.233z M6.529,1.233h-2.73V1.021
		c0-0.181,0.154-0.325,0.346-0.325h2.037c0.192,0,0.348,0.145,0.348,0.325V1.233z"/>
	<path d="M1.712,3.085l0.005,6.282C1.734,9.719,2.041,10,2.42,10h5.487c0.38,0,0.687-0.281,0.703-0.633l0.004-6.282H1.712z
		 M6.467,4.463c0-0.209,0.181-0.378,0.404-0.378c0.223,0,0.404,0.169,0.404,0.378v3.988c0,0.209-0.182,0.379-0.404,0.379
		c-0.224,0-0.404-0.17-0.404-0.379V4.463z M4.76,4.463c0-0.209,0.18-0.378,0.403-0.378s0.404,0.169,0.404,0.378v3.988
		c0,0.209-0.181,0.379-0.404,0.379S4.76,8.66,4.76,8.451V4.463z M3.053,4.463c0-0.209,0.18-0.378,0.402-0.378
		c0.224,0,0.405,0.169,0.405,0.378v3.988c0,0.209-0.182,0.379-0.405,0.379c-0.223,0-0.402-0.17-0.402-0.379V4.463z"/>
</g>
</svg>
