<?xml version="1.0" encoding="utf-8"?>
<!-- Generator: Adobe Illustrator 16.0.4, SVG Export Plug-In . SVG Version: 6.00 Build 0)  -->
<!DOCTYPE svg PUBLIC "-//W3C//DTD SVG 1.1//EN" "http://www.w3.org/Graphics/SVG/1.1/DTD/svg11.dtd">
<svg version="1.1" id="Layer_1" xmlns="http://www.w3.org/2000/svg" xmlns:xlink="http://www.w3.org/1999/xlink" x="0px" y="0px"
	 width="16px" height="16px" viewBox="0 0 16 16" enable-background="new 0 0 16 16" xml:space="preserve">
<path fill="#231F20" d="M15.44,12.735L12.67,9.964c0.533-0.976,0.818-2.076,0.817-3.22c0-1.802-0.701-3.496-1.976-4.769
	C10.238,0.702,8.545,0,6.744,0C3.025,0,0,3.025,0,6.744c0,3.718,3.023,6.743,6.744,6.743c1.145,0,2.243-0.284,3.221-0.818
	l2.771,2.771c0.745,0.747,1.958,0.747,2.704,0C16.187,14.693,16.188,13.481,15.44,12.735z M9.955,9.955
	c-0.857,0.858-1.998,1.33-3.211,1.33c-2.504,0-4.543-2.037-4.543-4.541c0-2.505,2.039-4.543,4.543-4.543s4.541,2.038,4.541,4.543
	C11.285,7.957,10.814,9.098,9.955,9.955z M9.885,6.657c0,0.485-0.394,0.879-0.879,0.879h-1.33H5.918h-1.33
	c-0.487,0-0.881-0.394-0.881-0.879s0.394-0.879,0.881-0.879h1.33h1.758h1.33C9.491,5.778,9.885,6.172,9.885,6.657z"/>
</svg>
