<?xml version="1.0" encoding="utf-8"?>
<!-- Generator: Adobe Illustrator 16.0.0, SVG Export Plug-In . SVG Version: 6.00 Build 0)  -->
<!DOCTYPE svg PUBLIC "-//W3C//DTD SVG 1.1//EN" "http://www.w3.org/Graphics/SVG/1.1/DTD/svg11.dtd">
<svg version="1.1" id="Layer_1" xmlns="http://www.w3.org/2000/svg" xmlns:xlink="http://www.w3.org/1999/xlink" x="0px" y="0px"
	 width="360px" height="360px" viewBox="0 0 360 360" enable-background="new 0 0 360 360" xml:space="preserve">
<g>
	<rect x="0" fill="#D5000E" width="360.001" height="360"/>
	<g>
		<rect x="32.132" y="148.639" fill="#FFFFFF" width="22.776" height="73.797"/>
		<path fill="#FFFFFF" d="M67.065,148.637H88.93v6.78c0,0,3.798-8.599,21.866-8.602c23.079-0.001,27.333,15.183,27.333,34.926
			v40.692h-22.775v-36.139c0-8.504-0.153-19.435-11.845-19.435c-11.845,0-13.666,9.261-13.666,18.829v36.745H67.065V148.637z"/>
		<path fill="#FFFFFF" d="M150.286,135.579c0-16.098,4.098-29.761,28.848-29.761c4.554,0,9.113,0.302,13.363,1.367l-1.064,19.283
			c-2.583-0.912-4.706-1.518-7.44-1.518c-7.288,0-10.931,2.279-10.931,11.997v11.691h16.853v18.223h-16.853v55.574h-22.776V135.579z
			"/>
		<path fill="#FFFFFF" d="M233.878,146.818c22.771,0,40.997,15.182,40.997,38.718c0,23.535-18.226,38.718-40.997,38.718
			c-22.78,0-41-15.183-41-38.718C192.878,162,211.098,146.818,233.878,146.818 M233.878,204.214
			c11.387,0,18.222-7.595,18.222-18.678c0-11.086-6.835-18.676-18.222-18.676c-11.393,0-18.22,7.59-18.22,18.676
			C215.658,196.619,222.485,204.214,233.878,204.214"/>
		<path fill="#FFFFFF" d="M283.798,148.637h22.774v6.451c0,0,5.942-9.322,29.156-8.324v19.993c-3.19-0.911-6.379-1.517-9.718-1.517
			c-17.31,0-19.438,12.454-19.438,27.18v30.015h-22.774V148.637z"/>
		<polygon fill="#FFFFFF" points="32.132,124.318 54.908,108.712 54.908,136.482 32.132,136.482 		"/>
	</g>
</g>
</svg>
